<?xml version="1.0" standalone="no"?>
<!DOCTYPE svg PUBLIC "-//W3C//DTD SVG 20010904//EN"
 "http://www.w3.org/TR/2001/REC-SVG-20010904/DTD/svg10.dtd">
<svg version="1.0" xmlns="http://www.w3.org/2000/svg"
 width="1024.000000pt" height="1024.000000pt" viewBox="0 0 1024.000000 1024.000000"
 preserveAspectRatio="xMidYMid meet">

<g transform="translate(0.000000,1024.000000) scale(0.100000,-0.100000)"
fill="#000000" stroke="none">
<path d="M1226 6488 c8 -29 28 -80 43 -113 22 -48 25 -65 17 -87 -8 -22 -3
-38 29 -100 42 -82 150 -229 241 -328 33 -36 91 -111 129 -165 38 -55 91 -127
117 -159 27 -33 44 -64 40 -68 -14 -14 -35 1 -97 73 -32 38 -63 69 -68 69 -14
0 24 -56 90 -132 34 -40 72 -90 83 -110 17 -32 54 -68 140 -137 l25 -20 -55
-1 c-77 0 -131 -11 -127 -24 2 -6 27 -22 55 -36 29 -13 51 -29 49 -35 -5 -16
-98 -44 -148 -45 -29 0 -51 -6 -59 -15 -10 -13 -7 -17 23 -30 20 -8 66 -19
103 -24 37 -6 71 -14 76 -19 5 -5 -5 -27 -23 -51 -17 -24 -29 -45 -27 -47 2
-2 21 8 41 21 40 27 97 44 97 28 0 -6 -9 -18 -20 -28 -18 -16 -80 -185 -80
-218 0 -10 7 -13 20 -10 24 6 25 0 5 -35 -7 -15 -30 -70 -50 -122 -20 -52 -40
-104 -45 -115 -30 -69 -77 -254 -85 -336 -7 -69 -30 -105 -90 -136 -16 -8 -55
-28 -86 -44 -54 -27 -87 -55 -77 -64 2 -3 40 11 84 30 43 19 94 38 113 41 41
8 247 126 358 204 l81 58 -23 -68 c-35 -103 -56 -239 -62 -405 -10 -272 32
-508 124 -692 26 -53 51 -72 39 -30 -32 110 -36 141 -35 252 0 66 4 129 9 140
7 17 9 14 9 -13 1 -52 40 -226 78 -352 66 -221 196 -487 233 -475 10 3 22 -7
34 -30 11 -19 26 -41 34 -48 13 -10 15 -8 9 12 -3 13 -2 20 2 15 4 -5 28 -34
53 -64 26 -30 67 -71 93 -90 l47 -35 -55 -16 c-72 -21 -136 -52 -137 -64 0
-19 87 -204 157 -332 39 -70 74 -139 78 -153 4 -14 17 -35 28 -47 25 -28 18
-38 -17 -22 -40 19 -63 -8 -68 -79 -2 -31 -25 -124 -50 -207 -25 -82 -62 -240
-82 -349 -31 -167 -52 -244 -131 -485 -52 -158 -95 -298 -95 -312 0 -27 20
-58 75 -119 18 -19 35 -47 39 -62 l6 -28 2255 0 2255 0 4 23 c3 12 8 72 11
132 12 224 56 376 141 495 49 69 70 127 94 271 12 68 26 129 32 136 9 11 66
19 69 11 0 -2 6 -61 13 -133 11 -109 11 -145 -1 -220 -14 -87 -16 -91 -64
-140 -46 -47 -49 -54 -49 -100 0 -28 7 -58 15 -69 12 -16 11 -23 -13 -58 -21
-32 -29 -62 -39 -142 -15 -124 -16 -206 -3 -206 6 0 10 26 10 58 0 139 33 284
70 307 14 9 12 36 -4 54 -31 37 -28 67 14 120 23 29 45 49 51 46 5 -4 12 0 15
9 9 22 74 44 157 52 129 11 200 -19 256 -109 19 -32 22 -47 18 -100 -3 -34 -8
-116 -11 -182 -5 -114 -16 -199 -31 -238 -5 -12 -2 -17 8 -17 22 0 25 8 41 97
14 79 14 254 1 576 -6 135 -8 148 -27 158 -19 10 -20 18 -16 101 3 49 10 94
16 100 13 13 130 -5 225 -34 45 -14 71 -18 78 -11 18 18 44 173 32 191 -7 12
-53 25 -149 44 -76 15 -150 27 -163 28 -22 0 -23 2 -17 48 9 72 43 475 58 682
8 115 13 389 13 725 0 525 -1 541 -20 575 -32 53 -114 65 -208 30 -100 -37
-94 -11 -101 -445 -9 -523 -36 -1111 -61 -1290 -7 -55 -17 -143 -20 -197 l-7
-96 -135 -7 c-73 -4 -137 -5 -140 -1 -3 3 4 32 16 65 21 59 21 60 3 95 -17 31
-18 55 -15 258 2 142 0 216 -6 203 -5 -11 -10 -36 -10 -56 -1 -50 -35 -154
-70 -214 -16 -27 -63 -87 -105 -133 -70 -76 -76 -85 -76 -125 0 -24 4 -47 8
-52 16 -18 35 -130 47 -280 7 -84 20 -137 47 -189 l20 -39 35 89 c27 71 62
210 63 257 0 4 5 7 10 7 6 0 10 -16 10 -35 l0 -35 66 0 c59 0 65 -2 58 -17
-18 -42 -43 -151 -43 -191 -1 -55 -35 -156 -68 -198 -23 -30 -31 -34 -74 -34
-45 0 -51 3 -93 48 -73 78 -172 204 -231 296 -31 47 -60 88 -64 91 -9 5 -59
105 -112 223 -42 92 -119 343 -119 386 0 36 1 36 23 22 37 -25 109 -64 167
-92 30 -14 72 -35 92 -45 66 -34 188 -67 188 -51 0 15 -16 30 -38 36 -30 10
-168 114 -214 162 -81 85 -229 333 -228 382 0 4 24 36 53 72 75 94 105 159
120 265 11 68 21 102 45 141 18 28 32 59 32 68 0 9 4 16 8 16 18 0 45 -150 50
-277 4 -137 -8 -210 -47 -273 -15 -24 -15 -24 2 -11 70 56 108 213 112 461 2
96 8 211 15 255 23 149 -11 457 -69 628 -16 48 -50 130 -75 182 -24 52 -43 95
-42 95 2 0 23 -11 47 -24 118 -66 350 -135 454 -136 39 0 53 4 62 19 11 18 9
21 -20 29 -18 6 -60 16 -95 22 -34 7 -104 34 -155 59 l-92 46 -27 130 c-15 72
-27 136 -27 143 -1 8 18 12 64 12 36 0 65 4 65 9 0 5 -24 15 -52 21 -85 20
-104 36 -133 110 -15 36 -44 95 -66 132 -21 36 -39 70 -39 73 0 4 -10 20 -21
37 -21 29 -62 185 -53 200 3 4 -2 18 -9 30 -8 13 -20 41 -27 63 -17 54 -82
207 -86 202 -2 -2 12 -44 32 -92 20 -49 40 -110 45 -135 4 -25 20 -88 33 -140
26 -98 53 -296 42 -308 -11 -10 -182 165 -278 286 -50 61 -93 112 -95 112 -7
0 62 -95 126 -175 54 -66 260 -280 271 -280 14 0 130 -81 135 -94 7 -18 -50
-7 -130 24 -32 14 -61 23 -63 21 -8 -9 87 -56 146 -72 l62 -17 15 -51 c21 -70
46 -208 40 -214 -2 -3 -48 37 -102 89 -104 101 -105 100 -24 -4 39 -49 78 -84
150 -132 54 -36 103 -65 109 -65 15 0 72 -33 72 -42 0 -17 -229 74 -390 154
-96 48 -167 82 -157 75 11 -6 46 -30 80 -52 53 -34 63 -45 68 -76 3 -19 17
-51 31 -70 30 -38 64 -119 84 -194 7 -27 24 -94 38 -149 30 -115 53 -347 41
-421 -7 -49 -8 -49 -30 80 -21 124 -52 243 -97 368 -35 96 -29 59 13 -83 73
-250 82 -315 87 -607 3 -187 1 -263 -7 -263 -7 0 -11 23 -11 59 0 32 -12 103
-26 157 -22 82 -26 117 -25 205 3 137 -25 263 -83 373 -32 61 -62 98 -133 166
-50 48 -116 103 -147 121 -37 23 -55 41 -56 54 -1 93 39 374 75 531 l5 21 66
-18 c37 -10 83 -20 103 -21 20 -1 50 -8 68 -15 39 -16 43 -16 43 -3 0 5 -18
19 -39 29 -21 11 -60 44 -85 73 -54 62 -62 50 -11 -16 19 -25 31 -46 26 -46
-20 0 -258 81 -277 94 -15 11 -20 23 -17 40 7 35 -53 97 -124 129 -74 32 -204
52 -299 43 l-74 -6 -47 48 -48 47 53 3 c69 4 68 23 -2 45 -30 10 -59 24 -65
31 -12 14 -113 287 -109 292 5 4 234 -36 316 -57 46 -11 86 -19 88 -16 16 16
-201 67 -347 82 l-66 7 -38 97 c-119 302 -308 636 -440 776 -31 33 -43 42 -25
20 171 -218 304 -449 428 -743 54 -129 60 -152 40 -153 -7 0 -4 -4 6 -8 14 -5
35 -49 71 -149 l52 -141 -31 16 c-17 9 -49 28 -71 43 -65 44 -73 47 -56 26 19
-23 90 -72 166 -114 33 -19 52 -31 42 -28 -10 3 -37 9 -60 12 -98 14 -217 65
-319 137 -32 22 -60 38 -64 35 -8 -9 28 -75 81 -147 l47 -63 -47 38 c-26 22
-81 80 -123 129 -181 215 -333 503 -387 738 l-15 62 5 -60 c11 -159 167 -489
326 -692 l49 -63 0 -103 c0 -202 -45 -376 -177 -684 -3 -7 -1 -13 5 -13 12 0
73 141 112 261 48 146 73 281 74 406 l1 112 80 -78 c44 -43 88 -82 98 -88 18
-9 18 -12 2 -74 -26 -99 -102 -302 -159 -424 -57 -123 -120 -240 -112 -210 3
11 21 76 39 145 34 122 53 209 41 181 -4 -7 -15 -22 -25 -32 -10 -10 -28 -37
-40 -61 -18 -36 -87 -141 -137 -208 -8 -12 -10 -20 -3 -24 12 -8 91 102 144
198 21 39 37 64 34 56 -2 -8 -28 -93 -57 -188 -29 -95 -50 -176 -46 -180 14
-13 57 53 137 213 45 88 78 150 74 137 -4 -12 -7 -51 -7 -85 -1 -57 2 -67 36
-114 67 -94 204 -143 438 -158 l107 -7 10 -51 c19 -91 32 -249 31 -367 -2
-154 -2 -156 10 -144 19 19 33 224 25 364 -5 74 -9 152 -9 173 l-1 39 72 23
c93 29 149 62 200 118 79 85 119 199 110 309 l-6 67 42 -16 c23 -9 43 -17 44
-18 2 -1 -6 -48 -17 -106 -27 -139 -47 -284 -55 -394 l-6 -90 61 -45 c34 -25
106 -88 160 -140 75 -72 105 -109 125 -153 39 -85 65 -224 64 -342 -1 -89 -4
-108 -32 -174 -64 -147 -224 -277 -458 -370 l-76 -31 -82 36 c-139 60 -255 85
-427 91 -188 7 -350 -10 -357 -37 -3 -10 -5 -69 -6 -131 -1 -62 -4 -115 -6
-117 -2 -3 -116 1 -252 8 -170 8 -358 10 -595 5 l-348 -7 0 162 0 163 -172 -7
c-210 -8 -381 -21 -594 -47 -88 -10 -179 -19 -202 -19 -42 0 -42 0 -76 67 -66
133 -132 386 -156 603 -6 52 -14 127 -19 165 l-8 70 -2 -72 c-2 -131 41 -400
95 -588 20 -71 66 -183 101 -246 2 -4 -27 -9 -64 -13 -37 -4 -97 -13 -133 -21
l-65 -14 -45 37 c-134 107 -272 302 -290 409 l-8 48 -1 -52 c-1 -31 7 -74 19
-105 42 -112 12 -80 -60 62 -104 208 -192 508 -211 723 -5 67 -12 123 -13 125
-10 9 -30 -213 -30 -330 l-1 -137 -23 67 c-53 158 -66 251 -66 492 -1 265 7
320 80 549 3 9 -6 7 -28 -7 -205 -125 -267 -161 -350 -203 -54 -27 -100 -49
-104 -49 -3 0 30 26 74 58 194 138 405 352 510 515 279 431 334 507 464 634
131 129 386 281 666 398 62 26 111 49 108 52 -2 2 -39 -8 -82 -22 -111 -37
-360 -161 -484 -242 -102 -67 -197 -114 -252 -127 -16 -4 -28 -5 -28 -3 0 2
25 21 55 41 30 20 55 41 55 46 0 14 -7 13 -64 -15 -29 -14 -79 -28 -116 -32
l-65 -6 58 53 c40 36 54 55 46 61 -7 4 -24 2 -38 -3 -30 -13 -235 -13 -301 0
l-45 8 40 13 c46 15 85 38 85 50 0 4 -24 13 -52 20 -88 19 -88 28 -2 36 102 8
204 29 231 45 22 14 53 69 54 98 0 9 9 31 20 47 10 17 21 37 25 45 17 43 31
62 75 109 36 38 49 60 51 84 1 17 2 43 3 57 1 28 4 28 83 6 65 -18 193 -37
204 -30 13 8 -11 34 -31 34 -17 0 -132 82 -126 89 3 2 30 -3 62 -12 116 -32
401 -50 479 -31 38 10 28 24 -17 24 -22 0 -38 4 -35 9 5 8 -101 61 -151 76
-40 11 -27 28 15 19 39 -9 137 -11 462 -6 174 3 202 1 260 -17 73 -23 114 -27
108 -9 -2 6 -38 21 -80 33 -75 22 -248 110 -248 127 0 5 10 6 23 2 61 -19 101
-23 207 -19 63 2 138 9 165 15 70 17 421 17 520 1 243 -40 302 -97 313 -304 3
-60 8 -93 13 -85 5 7 9 24 9 37 0 15 18 44 48 75 27 28 54 63 61 76 7 14 -12
-2 -42 -35 -30 -33 -58 -57 -61 -54 -3 3 -10 29 -16 57 -29 155 -86 207 -268
249 -64 14 -121 17 -332 16 -166 -1 -280 -7 -325 -15 -100 -20 -231 -9 -318
26 -37 15 -73 26 -79 24 -14 -5 70 -89 125 -126 20 -14 36 -26 34 -28 -2 -2
-41 -6 -88 -10 -46 -3 -90 -7 -98 -10 -18 -6 -340 -6 -370 1 -28 5 -106 32
-138 48 -13 6 -26 7 -30 3 -9 -9 55 -67 115 -102 23 -14 42 -27 42 -29 0 -11
-121 30 -182 62 -27 13 -48 21 -48 17 0 -4 18 -30 41 -56 23 -27 40 -51 38
-52 -7 -6 -152 13 -197 25 -67 18 -71 0 -13 -54 41 -39 46 -47 29 -47 -42 0
-155 40 -213 76 -138 84 -125 78 -125 57 0 -11 16 -38 36 -61 45 -53 42 -53
-58 -1 -59 31 -216 130 -268 170 -55 41 -149 94 -156 87 -7 -7 64 -104 88
-120 12 -9 55 -45 93 -82 39 -36 78 -68 88 -71 28 -10 20 -25 -10 -20 -16 3
-71 12 -123 20 -186 31 -471 118 -679 209 -150 65 -210 111 -326 251 -32 39
-62 71 -66 73 -5 2 -1 -21 7 -50z m134 -272 c0 -5 -11 1 -25 14 -14 13 -25 31
-25 39 1 11 9 6 25 -14 14 -16 25 -34 25 -39z m1880 -178 l65 -23 -53 -3 c-55
-3 -110 18 -120 47 -6 17 13 13 108 -21z m-1280 -665 c88 -25 115 -27 129 -9
8 9 27 16 43 16 16 0 39 5 50 11 22 12 108 -6 108 -22 0 -12 -105 -22 -156
-15 -37 5 -45 2 -54 -14 -12 -22 -21 -18 120 -47 53 -11 132 -17 210 -18 109
0 131 3 169 22 l43 22 -23 -25 c-32 -34 -82 -64 -132 -79 -23 -7 -42 -18 -42
-26 0 -16 86 -19 170 -6 44 6 47 6 30 -7 -11 -8 -16 -18 -12 -22 7 -8 92 6
132 22 11 4 -15 -30 -57 -76 -105 -113 -236 -292 -335 -457 -108 -181 -145
-231 -250 -343 -100 -106 -316 -295 -321 -280 -2 5 15 83 38 172 43 170 121
393 171 488 l29 55 -5 -50 c-3 -27 -8 -64 -11 -82 -6 -39 13 -54 21 -16 13 62
28 110 47 146 10 21 18 43 16 48 -2 6 -13 -9 -26 -33 -23 -45 -29 -36 -13 19
14 50 -3 49 -54 -1 -25 -25 -45 -41 -45 -35 0 20 45 115 83 176 42 67 41 89
-2 78 -21 -5 -24 -4 -13 6 31 32 14 39 -92 39 -58 0 -107 4 -110 8 -3 5 23 14
57 21 59 12 177 74 177 93 0 4 -25 7 -55 6 -87 -4 -91 18 -6 27 39 4 73 10 76
15 7 12 -15 33 -87 83 -64 45 -108 89 -108 109 0 6 8 7 18 3 9 -3 42 -13 72
-22z m3472 -829 c29 -15 31 -22 19 -64 -7 -24 -8 -23 -50 30 -24 30 -57 75
-74 100 l-31 45 54 -48 c29 -27 66 -55 82 -63z m121 -56 c27 -10 71 -23 97
-29 41 -9 56 -19 94 -63 l45 -53 -50 -11 c-114 -27 -278 -124 -344 -205 -17
-19 -24 -24 -20 -12 23 60 75 239 75 257 0 14 5 18 16 14 70 -27 83 -13 30 31
-29 25 -33 32 -28 66 3 31 8 37 21 31 9 -3 38 -15 64 -26z m1183 -242 c30 -60
52 -111 50 -114 -3 -3 -30 12 -61 33 -59 41 -60 42 -69 165 -4 59 -3 63 10 45
9 -11 40 -69 70 -129z m-874 35 c13 -5 32 -18 44 -29 11 -11 30 -23 42 -26 12
-4 43 -22 69 -40 58 -39 117 -63 172 -70 57 -7 53 12 -10 49 -27 16 -60 40
-72 54 l-22 24 34 -18 c19 -9 65 -37 102 -61 76 -49 85 -68 82 -178 -2 -61
-13 -97 -61 -196 -33 -68 -100 -117 -203 -150 -61 -20 -91 -23 -193 -22 -234
3 -377 43 -465 130 l-54 53 5 83 c11 162 70 240 263 340 58 30 140 52 237 65
4 1 17 -3 30 -8z m154 -22 c16 -5 50 -30 75 -55 l44 -46 -80 40 c-44 23 -93
50 -110 62 l-30 20 35 -6 c19 -3 49 -10 66 -15z m1828 -1145 c29 -11 16 -29
-65 -84 -129 -89 -132 -92 -125 -126 10 -43 65 -136 79 -131 21 7 19 34 -8 73
-39 57 -43 85 -15 103 13 9 56 41 94 73 l71 56 8 -111 c10 -138 2 -740 -13
-977 -14 -206 -59 -722 -64 -727 -4 -4 -289 18 -295 23 -3 3 7 118 34 379 8
77 17 212 20 300 3 88 10 224 15 301 6 78 12 283 16 455 3 173 7 323 9 335 8
36 43 47 207 62 9 1 23 -1 32 -4z m-1193 -704 c-16 -73 -62 -159 -120 -222
-28 -31 -51 -60 -51 -66 0 -5 9 -37 20 -71 35 -111 129 -252 242 -363 43 -42
74 -79 69 -82 -11 -7 -126 49 -238 116 -51 31 -94 54 -97 51 -6 -6 0 -41 26
-151 35 -154 152 -455 213 -551 14 -23 25 -45 25 -50 0 -5 16 -27 36 -48 20
-21 51 -60 70 -88 18 -27 67 -87 109 -132 41 -45 75 -86 75 -92 0 -24 -207 16
-331 64 -115 44 -128 53 -140 100 -17 61 -40 105 -56 105 -8 0 -28 -14 -44
-31 -27 -28 -29 -29 -52 -15 -55 36 -158 179 -178 245 -11 40 -7 475 6 528 7
32 6 33 -40 53 -41 18 -46 23 -41 43 17 55 66 309 72 370 5 54 4 71 -7 78 -20
12 -4 23 61 44 30 10 76 28 103 42 l47 23 0 -28 c0 -15 8 -44 19 -65 l19 -37
36 45 c53 64 86 125 86 160 0 19 11 40 32 62 38 39 44 32 29 -37z m-102 -83
c-7 -18 -26 -49 -43 -70 -34 -43 -46 -36 -46 30 0 40 3 44 39 63 22 11 43 25
48 32 14 23 16 -21 2 -55z m646 -755 c0 -99 4 -146 14 -164 12 -23 10 -35 -13
-104 -14 -44 -41 -142 -60 -219 -20 -77 -41 -160 -49 -185 l-14 -45 -21 70
c-11 39 -25 126 -31 195 -6 69 -20 161 -32 205 l-21 80 24 20 c41 36 142 169
173 227 17 32 30 58 30 58 0 0 0 -62 0 -138z m275 -589 c0 -102 -11 -159 -24
-123 -3 8 -7 53 -9 100 -3 47 -8 95 -12 108 -6 19 -4 22 19 22 l26 0 0 -107z
m290 71 l35 -6 -3 -101 c-2 -56 -5 -103 -5 -103 -1 -1 -35 5 -75 14 l-72 15 6
81 c3 45 7 87 10 94 4 13 47 15 104 6z m-18 -245 l78 -21 0 -100 0 -99 -35 34
c-20 20 -55 40 -81 47 -60 17 -179 7 -239 -19 l-47 -21 6 33 c3 17 8 62 12
100 l7 67 110 0 c81 0 131 -6 189 -21z"/>
<path d="M5787 4182 c-15 -9 -47 -44 -71 -76 -54 -72 -86 -172 -89 -278 -2
-70 0 -77 23 -97 52 -45 83 -55 161 -56 106 0 140 20 182 105 30 60 32 72 31
161 -1 86 -4 102 -34 168 -23 50 -41 76 -58 82 -39 15 -115 10 -145 -9z m127
-26 c26 -11 38 -26 57 -72 20 -50 24 -76 24 -164 0 -155 -31 -198 -149 -207
-70 -6 -132 8 -170 38 -23 18 -26 27 -26 87 0 73 17 147 45 202 59 114 131
153 219 116z"/>
<path d="M7695 2713 c-98 -73 -95 -60 -29 -162 32 -50 62 -91 67 -91 14 0 -77
-100 -98 -106 -49 -16 -46 -62 7 -120 38 -42 43 -44 55 -28 11 15 8 23 -22 56
-19 21 -35 41 -35 44 0 3 29 38 65 76 59 64 83 100 53 82 -7 -5 -9 -2 -5 8 3
9 -15 47 -44 92 -27 43 -49 79 -49 82 0 3 24 27 53 54 28 26 50 50 47 53 -3 3
-32 -15 -65 -40z"/>
<path d="M4250 6452 c0 -14 54 -84 91 -119 36 -33 89 -54 89 -34 0 6 -3 11 -7
11 -13 0 -76 41 -71 46 3 2 25 -3 49 -11 24 -9 94 -19 154 -22 100 -5 116 -4
180 19 133 48 293 40 407 -18 44 -23 48 -29 48 -99 0 -104 -46 -227 -126 -336
-34 -47 -42 -69 -25 -69 13 0 66 69 87 113 10 20 23 37 29 37 6 0 40 12 75 26
139 56 275 65 381 24 63 -23 149 -87 149 -109 0 -10 -14 -35 -30 -56 -17 -21
-28 -45 -25 -53 3 -7 5 -15 5 -17 0 -2 21 -18 46 -36 38 -26 50 -30 67 -21 45
23 149 33 377 39 l235 5 22 -41 c12 -23 17 -43 12 -47 -21 -13 -72 -133 -81
-189 -22 -138 -21 -168 4 -205 24 -36 52 -54 103 -67 55 -14 -63 -16 -130 -2
-73 15 -84 22 -77 54 4 21 0 25 -19 25 -17 1 -65 41 -163 135 -76 74 -140 135
-143 135 -3 0 -26 17 -52 38 -49 41 -223 163 -206 145 6 -6 59 -49 118 -96
l109 -86 -44 -11 c-77 -19 -131 -41 -205 -83 l-72 -40 91 -104 c50 -57 94
-106 98 -108 6 -3 244 76 341 113 23 9 30 7 48 -12 l21 -23 -85 -21 c-101 -25
-204 -73 -239 -112 l-25 -28 47 -54 c26 -30 58 -69 72 -86 l25 -33 80 34 c66
28 181 61 291 82 17 4 30 -8 62 -53 83 -119 257 -433 301 -545 17 -43 31 -80
31 -84 0 -3 -25 34 -56 83 -56 89 -84 127 -91 121 -6 -6 28 -66 41 -74 19 -11
97 -163 90 -174 -3 -5 -1 -9 4 -9 5 0 15 -19 22 -42 7 -24 17 -47 22 -52 25
-30 -11 158 -45 234 -71 157 -130 278 -151 304 -19 26 -22 38 -16 76 4 27 1
60 -7 83 -11 34 -11 37 6 37 27 0 91 -28 129 -57 26 -20 33 -21 38 -9 9 23
-12 52 -79 107 -34 28 -66 55 -70 59 -5 4 16 15 45 24 29 10 87 30 128 46 41
15 100 33 131 39 63 13 96 32 85 49 -4 7 -23 12 -42 12 -20 0 -34 3 -32 8 2 4
35 37 73 73 94 88 199 198 194 203 -2 3 -33 -15 -69 -39 -36 -25 -71 -45 -78
-45 -8 0 13 30 46 68 33 37 72 92 87 122 15 30 49 78 76 107 46 49 62 83 39
83 -6 0 -27 -7 -47 -15 -20 -8 -38 -13 -40 -11 -2 2 17 21 43 42 46 39 214
238 214 255 0 18 -16 8 -60 -37 -102 -106 -255 -178 -498 -236 -76 -18 -136
-22 -482 -29 -330 -8 -412 -12 -498 -29 l-102 -20 -40 25 -40 25 27 55 c26 52
27 58 13 83 -22 38 -101 88 -177 112 -114 35 -244 23 -372 -36 -30 -13 -55
-23 -57 -21 -2 2 5 39 16 83 26 112 35 197 21 222 -16 30 -125 79 -205 93 -95
16 -190 6 -267 -27 -58 -25 -76 -28 -184 -28 -136 -1 -180 13 -252 78 -41 37
-53 43 -53 28z m2508 -1277 c-61 -25 -182 -55 -221 -55 -40 0 -41 -27 -1 -33
31 -5 113 -54 114 -68 0 -4 -23 -2 -51 3 -28 5 -53 8 -55 5 -2 -2 3 -35 11
-73 25 -120 19 -121 -47 -7 -25 43 -73 116 -108 162 -52 70 -58 83 -39 77 52
-14 150 -19 172 -8 26 13 57 16 187 19 l95 2 -57 -24z"/>
<path d="M4432 6014 c-195 -52 -428 -201 -627 -399 -117 -117 -190 -211 -244
-315 -53 -103 -96 -250 -73 -250 13 0 39 32 46 57 9 29 143 151 254 230 114
81 289 174 273 145 -6 -12 -16 -24 -22 -27 -16 -10 -89 -106 -89 -117 0 -5 21
8 48 30 93 78 216 149 350 201 l52 21 -30 -54 c-92 -163 -156 -498 -131 -692
10 -78 36 -154 53 -154 4 0 9 44 9 98 1 53 4 111 8 127 6 26 8 21 14 -31 14
-127 91 -304 193 -441 65 -88 172 -203 188 -203 8 0 12 57 12 208 0 225 15
380 64 667 40 235 42 250 20 165 -24 -91 -75 -395 -91 -540 -6 -58 -12 -183
-13 -279 l-1 -173 -49 53 c-180 199 -275 389 -321 644 l-8 40 -9 -30 c-5 -16
-15 -73 -22 -125 l-13 -95 -8 60 c-4 32 -5 120 -2 195 9 212 67 428 142 530
30 41 42 49 97 63 131 35 195 47 249 47 53 0 69 8 69 37 0 10 -126 -7 -206
-28 -201 -52 -400 -136 -529 -223 l-70 -47 70 66 c39 36 78 73 88 81 38 32 7
23 -97 -25 -203 -95 -365 -207 -498 -343 l-67 -69 16 53 c64 217 317 503 608
685 131 83 323 153 416 153 113 0 235 -52 332 -141 73 -66 91 -64 28 4 -48 51
-129 102 -217 133 -76 28 -178 31 -262 8z"/>
<path d="M5235 5854 c-44 -8 -84 -20 -90 -26 -7 -8 -5 -9 7 -5 9 3 64 11 122
18 80 9 123 9 186 0 89 -13 115 -9 53 9 -65 18 -192 21 -278 4z"/>
<path d="M3085 5251 c-223 -276 -441 -851 -529 -1394 -26 -159 -40 -306 -27
-272 5 11 11 54 14 95 15 179 97 547 181 806 105 325 253 624 388 787 22 26
37 47 34 47 -3 0 -30 -31 -61 -69z"/>
<path d="M4111 5076 l-1 -108 -31 6 c-17 3 -40 6 -50 6 -17 0 -16 7 17 71 19
39 33 73 31 75 -3 3 -22 -29 -43 -69 l-38 -75 -106 -6 c-136 -9 -279 -26 -305
-37 -17 -8 -17 -9 5 -5 63 12 262 27 324 24 l69 -3 -86 -128 c-48 -71 -116
-166 -153 -212 l-65 -83 -62 -6 c-185 -20 -331 -66 -524 -166 l-131 -69 33 72
c18 40 55 118 84 175 28 56 49 102 46 102 -3 0 -48 -84 -100 -187 -70 -140
-106 -200 -140 -233 -56 -56 -79 -113 -72 -177 4 -37 -2 -64 -28 -132 -120
-317 -209 -661 -232 -901 l-7 -75 -8 50 c-5 28 -13 138 -17 245 l-9 195 3
-225 c4 -257 21 -367 80 -505 l34 -80 -37 40 c-20 23 -52 59 -70 80 -40 48
-32 31 20 -47 49 -74 128 -153 178 -178 46 -23 50 -24 50 -7 -1 6 -15 21 -32
32 -47 30 -102 108 -140 199 -31 77 -33 87 -32 196 2 133 27 287 84 505 39
150 161 520 177 536 5 5 29 -8 55 -29 l46 -37 0 -220 c-1 -369 43 -621 137
-794 l25 -46 -26 30 c-32 38 -105 189 -134 280 -13 39 -25 65 -27 58 -7 -19
55 -191 98 -274 39 -75 99 -149 120 -149 6 0 9 3 7 8 -114 223 -155 374 -179
660 -10 123 -8 416 3 428 3 2 30 -7 61 -21 68 -31 225 -67 412 -95 132 -19
244 -27 144 -10 -26 5 -62 15 -80 24 -19 8 -88 24 -154 36 -127 21 -265 53
-291 68 -12 7 -8 14 24 34 50 33 164 139 157 146 -2 3 -40 -23 -82 -58 -43
-35 -87 -71 -98 -79 -10 -9 10 18 46 59 141 164 157 201 51 122 -42 -32 -101
-73 -131 -91 l-54 -33 7 59 c3 32 8 81 11 108 4 45 4 47 -5 15 -10 -39 -32
-173 -34 -207 -1 -30 -7 -29 -37 5 -55 60 -54 55 -18 143 32 78 38 84 104 131
163 115 326 174 535 194 l75 7 -62 -70 c-34 -38 -110 -114 -169 -169 -58 -54
-101 -100 -94 -102 7 -3 37 20 69 50 104 99 101 99 73 16 -28 -83 -32 -182
-11 -243 11 -32 24 -44 69 -68 53 -28 60 -29 166 -25 85 2 116 7 130 19 11 9
25 14 32 12 7 -3 26 25 49 72 28 60 37 93 41 151 8 123 -30 264 -79 293 -31
18 -142 25 -198 13 l-43 -10 28 29 c36 38 69 43 189 29 117 -13 273 -62 390
-123 98 -52 248 -196 265 -255 19 -71 12 -154 -17 -213 -25 -48 -33 -55 -73
-67 -82 -23 -276 -34 -440 -25 -162 8 -218 8 -260 -4 -70 -20 419 -30 574 -13
173 20 210 40 264 144 40 78 37 158 -10 252 -19 40 -48 88 -63 108 -21 28 -95
226 -95 254 0 3 30 -44 66 -105 36 -60 101 -157 144 -215 79 -107 267 -310
304 -330 12 -6 -15 27 -59 73 -171 178 -361 436 -455 614 l-31 60 7 -45 c3
-25 19 -88 34 -142 32 -116 18 -122 -36 -16 -47 93 -101 256 -130 395 -29 137
-30 170 -6 176 13 4 12 5 -5 6 -19 1 -22 8 -28 89 -9 133 -12 137 -14 18z m18
-198 c22 -146 76 -337 130 -461 l21 -48 -43 26 c-121 75 -340 135 -492 135
l-45 0 93 123 c51 67 119 164 151 215 l59 92 57 0 57 0 12 -82z m-355 -528
c92 -35 124 -288 53 -414 -29 -52 -67 -64 -196 -65 -140 -1 -181 17 -205 90
-20 64 -20 92 0 180 24 105 85 190 154 212 27 9 168 7 194 -3z m-911 -248
c-17 -46 -33 -55 -33 -20 0 19 38 73 47 65 1 -2 -5 -22 -14 -45z m286 -19 c-7
-10 -46 -52 -87 -94 -54 -56 -79 -75 -93 -72 -40 11 -19 40 70 97 49 31 94 63
101 71 17 21 25 19 9 -2z"/>
<path d="M1756 3863 c-3 -27 -5 -69 -5 -95 0 -93 -74 -427 -126 -573 -152
-421 -253 -640 -357 -771 -26 -34 -48 -65 -48 -69 0 -12 102 77 183 160 l78
80 -6 -40 c-7 -40 -23 -118 -45 -225 -13 -59 -50 -210 -101 -410 -17 -69 -35
-144 -40 -168 -5 -23 -24 -97 -43 -165 -19 -67 -37 -138 -41 -157 -10 -55 -55
-190 -77 -233 -11 -22 -26 -58 -34 -81 -18 -49 -84 -163 -132 -225 -41 -54
-146 -150 -232 -211 -35 -25 -77 -58 -94 -73 l-31 -28 48 4 c61 6 323 134 411
201 19 14 38 26 41 26 15 0 -54 -80 -117 -135 -96 -83 -98 -85 -98 -96 0 -12
106 44 136 72 11 10 26 19 32 19 25 0 17 -25 -64 -197 -34 -73 -40 -93 -26
-93 11 1 57 70 75 112 19 44 43 52 32 11 -17 -71 -151 -306 -230 -406 -56 -70
-70 -93 -57 -96 9 -2 27 10 40 25 51 63 146 213 189 299 46 90 149 383 138
393 -6 7 -6 8 -44 -60 -18 -32 -34 -58 -36 -58 -2 0 5 31 16 70 23 84 23 86 3
65 -30 -29 -27 -7 3 32 17 21 40 58 53 82 12 25 50 77 83 115 191 222 403 543
551 836 70 137 150 320 143 327 -2 1 -27 -50 -56 -115 -168 -372 -479 -848
-711 -1089 -33 -34 -60 -66 -60 -70 0 -24 -291 -191 -360 -208 l-25 -6 25 18
c146 104 188 143 242 223 77 114 200 359 221 440 9 36 48 187 86 335 38 149
95 383 125 520 30 138 62 268 69 291 17 46 40 184 33 191 -3 3 -24 -16 -48
-42 -24 -26 -67 -73 -97 -104 -58 -61 -58 -60 23 76 44 73 115 233 163 363 19
52 54 147 78 210 82 219 145 526 145 711 0 55 -17 49 -24 -8z"/>
<path d="M4929 3766 c8 -9 24 -22 35 -28 19 -10 20 -10 7 6 -8 9 -24 22 -35
28 -19 10 -20 10 -7 -6z"/>
<path d="M4982 3205 c-19 -8 -42 -25 -52 -37 -18 -23 -18 -23 21 -56 21 -19
39 -39 39 -47 0 -7 7 -18 16 -26 20 -17 64 -103 64 -126 0 -23 -46 -122 -67
-145 -9 -10 -23 -18 -32 -18 -9 0 -29 -7 -46 -16 -37 -19 -185 -32 -325 -28
l-105 3 95 -14 c52 -7 131 -21 175 -29 105 -20 351 -21 470 -1 50 8 128 15
174 15 l84 0 39 40 c53 57 48 69 -7 15 l-44 -45 -98 0 c-87 1 -344 38 -358 52
-3 3 8 34 25 69 16 35 30 69 30 74 0 6 16 19 36 30 45 24 101 86 125 139 19
42 25 86 11 86 -4 0 -8 10 -9 21 -3 29 -10 34 -65 48 -64 15 -156 13 -196 -4z
m118 -180 c-13 -14 -26 -23 -28 -20 -4 4 38 44 47 45 3 0 -6 -11 -19 -25z m12
-317 c60 -13 108 -26 108 -30 0 -10 -334 -9 -410 1 l-55 7 60 7 c33 4 83 14
110 21 69 19 67 19 187 -6z"/>
<path d="M2248 2990 c-17 -123 -3 -442 28 -660 20 -140 66 -324 109 -429 43
-109 19 -78 -50 64 -53 108 -124 304 -160 438 -10 37 -20 65 -22 63 -8 -8 19
-119 59 -246 81 -254 186 -445 308 -565 68 -67 69 -49 3 33 -80 99 -157 287
-201 492 -41 188 -54 321 -61 595 -4 185 -8 253 -13 215z"/>
<path d="M4388 2740 c24 -23 42 -30 70 -29 l37 1 -30 10 c-16 6 -42 19 -57 29
-42 30 -56 21 -20 -11z"/>
<path d="M2066 2228 c-24 -156 -85 -389 -141 -541 -26 -70 -49 -126 -51 -124
-2 2 3 24 11 48 52 147 94 361 100 514 5 119 5 124 -26 -120 -16 -127 -69
-331 -119 -460 -47 -117 -56 -158 -37 -153 18 5 102 179 145 303 42 119 93
304 116 426 16 84 31 219 24 219 -2 0 -12 -51 -22 -112z"/>
<path d="M1281 361 c0 -7 -9 -21 -19 -30 -10 -9 -40 -47 -67 -86 -27 -38 -85
-109 -128 -157 -43 -49 -73 -88 -67 -88 18 0 161 156 202 220 75 117 76 90 4
-87 -46 -114 -51 -133 -36 -133 14 0 26 24 54 103 44 127 68 223 63 251 -2 11
-5 15 -6 7z"/>
</g>
</svg>
